<svg xmlns="http://www.w3.org/2000/svg" xmlns:xlink="http://www.w3.org/1999/xlink" zoomAndPan="magnify" preserveAspectRatio="xMidYMid meet" version="1.2" viewBox="12.24 128.89 354.64 108.75"><defs><clipPath id="259be29875"><rect x="0" width="132" y="0" height="115"/></clipPath><clipPath id="42c7b89130"><rect x="0" width="107" y="0" height="115"/></clipPath><clipPath id="ab74b8e787"><rect x="0" width="141" y="0" height="170"/></clipPath></defs><g id="2785a9db5b"><g transform="matrix(1,0,0,1,8,140)"><g clip-path="url(#259be29875)"><g style="fill:#000000;fill-opacity:1;"><g transform="translate(0.209138, 89.828425)"><path style="stroke:none" d="M 58.921875 -8.15625 L 58.921875 0 L 4.03125 0 L 4.03125 -6.375 L 45.3125 -57.5 L 4.6875 -57.5 L 4.6875 -65.671875 L 57.6875 -65.671875 L 57.6875 -59.296875 L 16.609375 -8.15625 Z M 58.921875 -8.15625 "/></g></g><g style="fill:#000000;fill-opacity:1;"><g transform="translate(61.844019, 89.828425)"><path style="stroke:none" d="M 51.6875 -16.421875 L 16.796875 -16.421875 L 9.5625 0 L -0.09375 0 L 29.640625 -65.671875 L 38.9375 -65.671875 L 68.765625 0 L 58.921875 0 Z M 48.40625 -23.921875 L 34.234375 -56.09375 L 20.078125 -23.921875 Z M 48.40625 -23.921875 "/></g></g></g></g><g transform="matrix(1,0,0,1,261,140)"><g clip-path="url(#42c7b89130)"><g style="fill:#000000;fill-opacity:1;"><g transform="translate(0.864975, 91.07075)"><path style="stroke:none" d="M 22.875 -57.484375 L 0.375 -57.484375 L 0.375 -65.640625 L 54.671875 -65.640625 L 54.671875 -57.484375 L 32.15625 -57.484375 L 32.15625 0 L 22.875 0 Z M 22.875 -57.484375 "/></g></g><g style="fill:#000000;fill-opacity:1;"><g transform="translate(37.148349, 91.07075)"><path style="stroke:none" d="M 51.671875 -16.40625 L 16.78125 -16.40625 L 9.5625 0 L -0.09375 0 L 29.625 -65.640625 L 38.90625 -65.640625 L 68.734375 0 L 58.890625 0 Z M 48.390625 -23.90625 L 34.21875 -56.078125 L 20.0625 -23.90625 Z M 48.390625 -23.90625 "/></g></g></g></g><path style="fill:none;stroke-width:12;stroke-linecap:butt;stroke-linejoin:miter;stroke:#000000;stroke-opacity:1;stroke-miterlimit:4;" d="M 0.00216572 5.999745 L 88.705297 5.999745 " transform="matrix(0,-0.75,0.75,0,140.277535,231.634437)"/><path style="fill:none;stroke-width:9;stroke-linecap:butt;stroke-linejoin:miter;stroke:#000000;stroke-opacity:1;stroke-miterlimit:4;" d="M 0.00199917 4.502075 L 72.585337 4.502075 " transform="matrix(-0.75,0.000000001309,-0.000000001309,-0.75,199.021031,171.939056)"/><g transform="matrix(1,0,0,1,160,103)"><g clip-path="url(#ab74b8e787)"><g style="fill:#000000;fill-opacity:1;"><g transform="translate(57.789696, 140.539133)"><path style="stroke:none" d="M 46.046875 -59.78125 L -1.8125 -33.25 C 1.925781 -27.550781 6.875 -24.015625 13.03125 -22.640625 C 19.195312 -21.273438 25.429688 -22.34375 31.734375 -25.84375 C 35.285156 -27.8125 38.195312 -30.253906 40.46875 -33.171875 C 42.738281 -36.085938 44.28125 -39.378906 45.09375 -43.046875 L 52.203125 -40.46875 C 51.359375 -36 49.472656 -31.910156 46.546875 -28.203125 C 43.628906 -24.503906 39.882812 -21.390625 35.3125 -18.859375 C 29.4375 -15.609375 23.539062 -13.972656 17.625 -13.953125 C 11.707031 -13.941406 6.253906 -15.441406 1.265625 -18.453125 C -3.722656 -21.472656 -7.765625 -25.78125 -10.859375 -31.375 C -13.953125 -36.957031 -15.507812 -42.632812 -15.53125 -48.40625 C -15.5625 -54.175781 -14.132812 -59.46875 -11.25 -64.28125 C -8.375 -69.09375 -4.289062 -72.96875 1 -75.90625 C 6.289062 -78.84375 11.71875 -80.242188 17.28125 -80.109375 C 22.851562 -79.972656 28.050781 -78.375 32.875 -75.3125 C 37.707031 -72.257812 41.691406 -67.90625 44.828125 -62.25 Z M 4.6875 -69.265625 C -0.820312 -66.210938 -4.46875 -61.894531 -6.25 -56.3125 C -8.039062 -50.726562 -7.625 -44.96875 -5 -39.03125 L 35.5625 -61.515625 C 31.925781 -66.890625 27.265625 -70.296875 21.578125 -71.734375 C 15.898438 -73.179688 10.269531 -72.359375 4.6875 -69.265625 Z M 4.6875 -69.265625 "/></g></g></g></g><path style="fill:none;stroke-width:9;stroke-linecap:butt;stroke-linejoin:miter;stroke:#b30e3a;stroke-opacity:1;stroke-miterlimit:4;" d="M 0.00106923 4.497559 L 77.501074 4.497559 " transform="matrix(-0.75,0.000000001309,-0.000000001309,-0.75,199.024239,159.29895)"/><path style="fill:none;stroke-width:9;stroke-linecap:butt;stroke-linejoin:miter;stroke:#b30e3a;stroke-opacity:1;stroke-miterlimit:4;" d="M 0.000560222 4.501379 L 39.406853 4.49663 " transform="matrix(-0.617117,-0.426224,0.426224,-0.617117,168.976282,158.664834)"/><path style="fill:none;stroke-width:9;stroke-linecap:butt;stroke-linejoin:miter;stroke:#b30e3a;stroke-opacity:1;stroke-miterlimit:4;" d="M 0.00286228 4.500175 L 39.290122 4.501951 " transform="matrix(-0.630355,0.40639,-0.40639,-0.630355,194.025945,142.987887)"/><path style="fill:none;stroke-width:9;stroke-linecap:butt;stroke-linejoin:miter;stroke:#b30e3a;stroke-opacity:1;stroke-miterlimit:4;" d="M 0.000650012 4.498278 L 30.052735 4.498278 " transform="matrix(0,0.75,-0.75,0,173.334646,133.386231)"/><path style="fill:none;stroke-width:12;stroke-linecap:butt;stroke-linejoin:miter;stroke:#000000;stroke-opacity:1;stroke-miterlimit:4;" d="M 0.00216572 5.999769 L 88.705297 5.999769 " transform="matrix(0,-0.75,0.75,0,190.023611,231.634437)"/></g></svg>